<?xml version="1.0" encoding="utf-8"?>
<!-- Generator: Adobe Illustrator 16.0.0, SVG Export Plug-In . SVG Version: 6.00 Build 0)  -->
<!DOCTYPE svg PUBLIC "-//W3C//DTD SVG 1.1//EN" "http://www.w3.org/Graphics/SVG/1.1/DTD/svg11.dtd">
<svg version="1.1" id="Layer_1" xmlns="http://www.w3.org/2000/svg" xmlns:xlink="http://www.w3.org/1999/xlink" x="0px" y="0px"
	 width="162.886px" height="206.994px" viewBox="1.905 2.459 162.886 206.994" enable-background="new 1.905 2.459 162.886 206.994"
	 xml:space="preserve">
<g>
	<path fill="#A92817" d="M46.32,74.502c0.028,7.528-1.521,14.857-2.782,22.224c-0.812,4.732-1.428,9.507-2.473,14.185
		c-0.6,2.688-1.461,5.471-5.038,6.024c-0.727,0.112-1.357,1.593-1.812,2.549c-1.054,2.222-1.938,4.524-2.97,6.759
		c-0.271,0.58-0.853,1.457-1.281,1.453c-3.837-0.033-4.499,3.684-6.729,5.514c-1.326,1.09-2.236,2.94-4.653,1.834
		c-0.52-0.233-2.056,1.295-2.858,2.236c-2.353,2.746-5.168,4.129-8.809,3.438c-0.455-0.086-0.855-0.453-1.418-0.77
		c2.747-7.597,3.64-15.459,3.909-23.464c0.27-7.86,0.882-15.71,1.396-24.526c1.662,3.762,1.946,16.095,0.986,23.317
		c-1.002,7.537-1.979,15.078-2.985,22.79c1.392,1.094,2.855,0.057,3.797-0.855c2.129-2.062,4.25-4.269,4.736-7.426
		c0.303-1.973,0.662-3.943,0.805-5.929c0.697-9.62,1.375-19.241,1.954-28.869c0.155-2.576,0.975-5.337-1.407-7.917
		c-1.268,1.748-1.256,3.688-1.36,5.517c-0.459,7.805-0.695,15.625-1.298,23.417c-0.286,3.746-1.205,7.443-1.841,11.164
		c-0.371-0.049-0.739-0.096-1.108-0.143c0.383-3.799,0.809-7.592,1.139-11.395c0.359-4.141,0.746-8.282,0.906-12.432
		c0.151-3.962,0.03-7.935,0.03-11.794c-0.476-0.247-0.772-0.546-1.013-0.504c-4.706,0.832-5.061,0.645-4.854-3.815
		c0.15-3.306,0.683-6.593,0.979-9.895c0.643-7.116,1.234-14.236,1.859-21.354c0.068-0.809,0.219-1.612,0.459-3.337
		c0.793,1.272,1.459,1.84,1.427,2.365c-0.426,6.798-0.899,13.595-1.469,20.383c-0.333,3.972-0.959,7.92-1.258,11.895
		c-0.163,2.166,0.975,2.783,2.698,1.492c1.149-0.859,2.412-1.993,2.862-3.272c1.04-2.956,1.956-6.036,2.304-9.135
		c0.595-5.284,0.669-10.624,1.042-15.935c0.168-2.401-0.462-5.003,1.829-6.959c0.34-0.29-0.306-1.735-0.496-2.646
		c-1,0.359-2.092,0.579-2.955,1.146c-0.334,0.22-0.157,1.226-0.197,1.875C17.954,60.353,17.597,67,17.095,73.636
		c-0.142,1.885-0.701,3.738-1.801,5.487c0.456-8.927,0.912-17.854,1.369-26.785c-4.206-1.036-4.206-1.036-6.698-3.013
		c3.479-2.795,3.948-7.045,5.214-10.906c1.99-6.068,5.517-10.979,10.786-14.528c4.851-3.268,9.988-3.547,14.936-0.262
		c2.74,1.82,5.175,4.104,7.875,6.284c2.128-3.629-2.264-7.083-0.688-11.498c0.823,0.976,1.243,1.566,1.754,2.062
		c1.685,1.639,2.194,1.631,3.227-0.465c2.028-4.12,4.562-7.724,8.878-9.724C63,9.801,64.071,9.36,65.134,8.892
		c4.835-2.13,9.67-4.262,14.594-6.433c-0.059,0.302-0.121,0.97-0.325,1.592c-0.579,1.771,0.2,2.463,1.887,2.579
		c1.485,0.103,3.056,0.018,4.438,0.475c2.173,0.719,4.483,1.477,6.266,2.837c3.979,3.039,7.819,3.22,11.932,0.528
		c0.236-0.156,0.569-0.166,1.254-0.349c-0.16,0.917-0.188,1.705-0.449,2.404c-0.307,0.817-1.799,1.444-0.575,2.437
		c0.521,0.422,1.594,0.456,2.317,0.279c1.57-0.382,3.079-1.013,5.068-1.699c-0.348,2.834-2.002,4.076-3.912,4.954
		c-1.8,0.827-3.685,1.548-5.604,2c-2.025,0.477-2.747,1.372-2.364,3.499c1.865,10.39-0.415,20.135-4.876,29.488
		c-1.429,2.996-3.115,5.87-4.472,8.896c-1.267,2.833-3.027,5.642-1.585,9.023c0.213,0.5-0.021,1.32-0.297,1.865
		c-0.271,0.529-0.836,1.207-1.316,1.244c-0.475,0.037-1.271-0.542-1.464-1.033c-1.126-2.89-1.097-5.829-0.021-8.751
		c0.504-1.375,0.993-2.754,1.491-4.131c0.132-0.046,0.279-0.065,0.388-0.145c0.062-0.048,0.053-0.189,0.076-0.289
		c-0.118,0.18-0.236,0.359-0.355,0.539c-1.651,1.038-3.415,1.938-4.931,3.147c-1.994,1.589-2.99,3.757-3.188,7.2
		c1.573-1.468,2.484-2.318,3.774-3.521c0.076,1.234,0.312,2.04,0.126,2.73c-0.354,1.295,1.223,4.024-2.452,3.11
		c-1.206-0.3-1.953,2.475-0.82,3.613c0.496,0.499,1.514,0.48,2.29,0.696c-0.771,1.026-1.544,2.055-2.323,3.076
		c-0.294,0.384-0.61,0.75-1.004,1.227c2.263,1.492,3.918,0.238,5.146-1.208c3.004-3.536,6.193-7.013,8.576-10.956
		c5.76-9.526,11.037-19.341,16.634-28.967c3.597-6.187,7.446-12.216,12.624-17.267c2.794-2.725,6.035-4.716,9.746-5.835
		c9.271-2.795,17.229,2.079,21.543,8.641c2.562,3.9,4.543,8.098,5.769,12.643c0.69,2.556,1.531,5.083,2.495,7.549
		c0.472,1.204,0.916,2.084-0.664,2.719c-1.6,0.644-1.396,2.129-1.347,3.434c0.157,4.154,0.329,8.31,0.591,12.459
		c0.366,5.806,0.822,11.605,1.229,17.408c0.059,0.828,0.354,1.815,0.023,2.466c-2.188,4.317-1.052,8.885-0.774,13.246
		c0.603,9.604,1.779,19.178,2.833,28.749c0.192,1.787,0.969,3.504,1.328,5.282c0.214,1.05,0.586,2.459,0.1,3.175
		c-0.926,1.362-2.668,1.366-4.092,0.702c-1.33-0.622-2.597-1.499-3.689-2.48c-1.098-0.984-1.953-2.238-2.896-3.355
		c-0.33,0-0.733-0.129-0.938,0.021c-3.354,2.469-3.404,2.52-5.854-0.342c-1.066-1.246-2.032-2.646-2.727-4.129
		c-0.877-1.883-1.562-3.592-4.184-3.473c-0.7,0.031-1.65-1.051-2.15-1.836c-1.248-1.953-2.51-3.945-3.379-6.082
		c-0.928-2.285-1.377-4.4-4.278-5.514c-1.587-0.607-2.824-3.304-3.345-5.288c-1.501-5.751-2.682-11.597-3.739-17.45
		c-0.608-3.375-0.738-6.837-1.839-10.221c-0.184,1.285,0.025,3.414-0.613,3.711c-2.823,1.309-3.812,3.474-4.021,6.287
		c-3.989,0.226-3.719,3.122-3.761,5.888c-0.005,0.372-0.521,0.8-0.886,1.091c-2.844,2.254-3.035,3.064-0.663,5.989
		c4.092,5.042,8.281,10,12.507,14.934c8.438,9.855,16.969,19.639,25.366,29.529c1.817,2.146,3.416,4.529,4.803,6.979
		c2.132,3.769,0.548,6.206-3.736,6.002c-0.809-0.038-1.604-0.354-2.399-0.575c-1.444-0.402-2.748-0.695-4.285,0.159
		c-1.041,0.58-2.748,0.802-3.816,0.354c-5.256-2.17-10.949-1.774-16.332-3.09c-2.844-0.69-5.299-2.166-7.063-4.432
		c-2.14-2.738-4.008-5.689-5.893-8.613c-0.896-1.392-1.562-2.929-2.314-4.41c-1.195-2.356-3.309-2.512-5.562-2.338
		c-2.078,0.158-3.262,1.213-3.854,3.269c-0.771,2.657-2.386,5.108-0.245,7.969c1.312,1.753,0.289,3.521-1.087,4.901
		c-1.674,1.683-3.095,3.462-3.188,6.033c2.588,0,5.135-0.069,7.674,0.021c2.426,0.088,5.031-0.441,7.423,1.971
		c-2.617,1.559-5.238,0.666-7.687,0.781c-2.449,0.115-4.91,0.025-7.455,0.025c-0.176,2.453,1.523,3.209,2.607,4.32
		c0.291,0.299,1.113,0.563,1.309,0.397c2.687-2.312,6.078,0.216,9.258-0.95c-0.877,0.723-1.761,1.434-2.627,2.163
		c-0.881,0.742-1.743,1.503-2.611,2.259c-0.423,0.073-0.846,0.148-1.268,0.227c0.104,0.156,0.208,0.311,0.312,0.466
		c0.27-0.283,0.541-0.567,0.812-0.851c1.71,0.062,3.421,0.127,5.132,0.188l-0.184-0.166c2.051,2.078,3.904,2.107,5.051-0.35
		c1.168-2.51,3.236-2.771,5.597-2.944c-0.57,0.474-1.14,0.95-1.722,1.411c-0.512,0.402-1.039,0.783-1.553,1.171
		c0.219,1.672,1.297,1.837,2.512,1.687c4.313-0.543,4.312-0.556,4.96,4.896c0.836-5.032,3.95-5.297,7.087-5.686
		c2.083-0.258,4.13-0.809,6.191-1.227c0.363,0.289,0.719,0.59,1.102,0.852c0.056,0.037,0.238-0.123,0.363-0.188
		c-0.521-0.183-1.043-0.358-1.563-0.541c0.746-1.194,1.315-3.106,3.092-1.069c1.049,1.2,1.845,0.383,2.393-0.271
		c0.938-1.11-0.104-1.875-0.924-2.328c-1.129-0.623-2.397-0.989-3.879-1.57c4.383-1.223,5.867-0.882,7.87,1.631
		c1.421,1.778,1.304,3.018-0.598,4.02c-1.157,0.613-2.489,0.896-3.739,1.346c-1.783,0.639-2.726,1.969-1.687,3.211
		c3.361,4.025,1.894,6.729-1.772,9.335c-0.568,0.403-0.435,1.804-0.668,2.974c3.09-1.979,6.899-7.082,8.854-11.744
		c-1.233,0-2.373,0-4.015,0c7.668-4.348,6.941-3.092,6.361-8.951c2.765,2.068,3.558,4.583,1.906,7.811
		c-1.424,2.789-3.143,5.481-5.071,7.95c-4.304,5.501-8.764,10.884-14.279,15.271c-0.896,0.709-1.477,1.813-2.365,2.527
		c-1.272,1.02-2.609,2.406-4.08,2.645c-3.989,0.645-6.997,2.953-10.026,5.214c-1.382,1.028-2.673,1.646-4.39,1.991
		c-4.703,0.945-9.295,2.451-14.002,3.361c-2.546,0.492-5.311,0.639-7.848,0.196c-3.161-0.55-6.166-0.914-9.296,0.028
		c-1.062,0.318-2.292,0.209-3.434,0.117c-2.299-0.188-4.587-0.51-6.881-0.756c-0.494-0.055-1.071,0.137-1.485-0.057
		c-4.537-2.088-9.313-3.146-14.263-3.666c-0.853-0.09-1.933-0.886-2.354-1.656c-1.603-2.92-4.338-3.916-7.229-4.824
		c-4.322-1.356-7.465-3.783-9.284-8.281c-0.898-2.229-3.28-4.174-5.444-5.512c-3.613-2.236-6.036-4.951-6.882-9.227
		c-0.508-2.562-1.625-5.018-2.647-7.439c-0.184-0.433-1.239-0.6-1.92-0.692c-4.354-0.616-8.742-1.076-13.228-3.329
		c1.486-1.333,2.821-2.284,3.852-3.497c3.362-3.974,8.405-6.522,10.114-11.896c3.239-2.558,6.269-5.476,9.785-7.565
		c3.353-1.993,5.746-4.388,6.688-8.138c0.878-3.498,2.771-6.314,5.247-8.9c1.702-1.775,3.021-3.923,4.52-5.896
		c0.993-1.311,1.804-2.862,3.061-3.832c1.071-0.825,2.727-1.418,4.01-1.248c0.699,0.095,1.161,1.982,1.861,3.312
		c0.364-0.223,0.896-0.49,1.368-0.84c2.692-1.982,2.686-1.986,4.619,0.992c0.171,0.262,0.462,0.443,0.965,0.914
		c0.229-1.27,0.345-2.36,0.632-3.406c0.749-2.736,0.776-2.729-1.568-2.502c-4.552,0.441-6.564-1.641-5.854-6.096
		c0.104-0.643,0.227-1.416,0.633-1.856c2.976-3.248,2.765-7.098,2.553-11.112c-0.101-1.887,0.509-4.004,1.409-5.689
		c0.709-1.327,0.836-2.356,0.507-3.705c-0.388-1.592-1.628-1.292-2.715-1.563c-0.446-0.111-1.119-0.978-1.025-1.316
		c0.574-2.068-0.17-2.342-1.983-1.853c-0.222,0.059-1.125-1.197-1.148-1.864c-0.097-2.646-1.927-1.571-3.229-1.661
		c-0.485-0.644-0.975-1.289-1.461-1.933c-0.521,0.683-1.342,1.3-1.508,2.06c-0.879,4.019-1.812,8.047-2.312,12.123
		c-0.748,6.077-1.134,12.199-1.736,18.294c-0.047,0.478-0.6,0.901-0.918,1.353c-0.234-0.078-0.469-0.156-0.704-0.234
		c0.547-6.279,1.095-12.562,1.643-18.84c-1.167,0.752-1.734,1.618-1.838,2.535c-0.678,6.091-1.342,12.187-1.814,18.293
		c-0.159,2.041,0.007,4.198,1.626,6.088c2.359-1.981,2.389-4.629,2.762-6.943c1.602-9.951,2.963-19.938,4.452-29.908
		C44.557,76.307,44.572,74.82,46.32,74.502z M131.089,132.743c-0.021-0.125-0.021-0.256-0.062-0.371
		c-0.025-0.076-0.115-0.129-0.181-0.19c0.126,0.146,0.251,0.292,0.376,0.438c0.354,0.312,0.701,0.627,1.053,0.938
		c0.186,0.794,0.152,1.734,0.582,2.355c3.023,4.354,6.006,8.75,9.298,12.896c1.299,1.631,3.272,2.783,5.083,3.93
		c1.72,1.086,3.64,1.512,6.046,0.062c-2.533-3.393-4.82-6.811-7.47-9.924c-5.592-6.578-11.398-12.969-17.063-19.484
		c-6.634-7.633-13.191-15.328-19.838-22.949c-0.617-0.708-1.572-1.226-2.476-1.558c-1.768-0.652-2.645-0.031-3.258,1.818
		c-0.562,1.693-1.283,3.333-1.934,4.998c-0.894-0.091-2.331-0.519-1.838,1.047c0.561,1.779,1.438,3.676,3.814,3.854
		c0.343,0.605,0.688,1.215,1.028,1.82c0.375-0.572,1.048-1.145,1.057-1.723c0.017-0.943-0.354-1.91-0.647-2.839
		c-0.957-2.995-0.976-2.989,2.279-5.073c0.602,1.498,2.279,2.49,1.876,4.626c-1.059-0.674-1.866-1.188-2.679-1.703
		c0.041-0.041,0.083-0.084,0.124-0.125c0.344,2.931,2.463,4.232,4.818,5.396c1.069,0.526,2.559,0.886,2.129,2.677
		c-3.396-0.451-1.035,2.662-2.289,3.746c-1.086-1.429-2.119-2.785-3.389-4.455c0.026,4.037,2.262,7.188,5.146,7.594
		c1.319,0.185,1.765-0.729,1.562-1.844c-0.315-1.744-0.784-3.463-1.188-5.189c1.213,1.568,2.328,3.229,3.667,4.682
		c1.229,1.333,2.701,2.445,4.757,4.27c-2.435-0.498-3.807-1.062-5.135-0.971c-1.396,0.094-2.792,0.719-4.104,1.303
		c-0.479,0.213-0.917,0.938-1.02,1.494c-0.31,1.689,0.589,2.504,2.692,2.485c2.401-0.021,4.981-0.749,7.127,2.422
		c-1.795,0.117-3.354,0.662-4.521,0.204c-2.491-0.98-4.168,0.32-5.955,1.464c-1.072,0.688-1.545,1.692-0.841,2.992
		c2.134,3.937,4.149,7.938,6.396,11.808c1.342,2.312,3.518,3.695,6.526,4.754c-0.272-2.646-1.493-4.258-2.635-5.75
		c-0.485-0.638-2.396-0.238-2.812-0.867c-1.824-2.764-3.424-5.688-4.913-8.648c-0.377-0.746,0.246-1.917,1.269-1.04
		c1.258,1.08,1.354,0.208,1.938-0.558c0.229-0.303,1.176-0.061,1.795-0.061c0.3,0.705,0.601,1.41,0.897,2.116
		c1.83,3.665,3.562,7.386,5.538,10.97c0.781,1.416,1.979,2.682,3.217,3.74c1.168,1.001,2.717,3.031,4.146,1.604
		c1.484-1.485-0.99-2.75-1.639-4.143c-0.237-0.517-0.991-1.133-1.503-1.123c-2.319,0.039-2.901-1.752-3.938-3.236
		c-1.854-2.66-3.906-5.184-5.875-7.762c-0.329-0.684-0.658-1.363-0.987-2.048c0-0.771,0-1.54,0-2.312
		c1.986,1.521,3.161,3.377,4.448,5.154c1.498,2.063,3.096,4.057,4.648,6.08c0.311,0.67,0.619,1.34,0.932,2.012
		c-0.043,0.041-0.086,0.084-0.128,0.125c-0.309-0.678-0.614-1.354-0.921-2.035c-1.572-3.395-3.146-6.791-4.848-10.453
		c0.702,0,1.484,0.24,1.834-0.044c1.538-1.265,2.36-0.909,3.371,0.758c2.401,3.96,5.062,7.765,7.56,11.665
		c0.426,0.666,0.562,1.518,0.838,2.275c-1.611-1.219-2.663-2.699-3.796-4.114c-1.623-2.026-3.307-4.007-4.961-6.007
		c0.041-0.041,0.079-0.08,0.12-0.121c1.625,4.926,4.254,9.279,7.418,13.355c1.507,1.938,3.46,3.071,5.779,3.584
		c0.721,0.157,1.531-0.105,2.306-0.176c-0.091-0.745,0.012-1.587-0.312-2.211c-0.445-0.863-1.268-1.523-1.826-2.342
		c-3.922-5.747-7.832-11.502-11.702-17.282c-0.605-0.907-1.492-1.938,0.188-2.847c1.252-0.674,2.187-1.197,3.315,0.365
		c3.107,4.297,6.411,8.451,9.592,12.695c1.314,1.764,2.515,3.613,3.765,5.426c-3.615-1.102-4.968-4.203-6.997-6.664
		c-1.874-2.271-3.756-4.539-5.634-6.811C131.79,133.374,131.44,133.059,131.089,132.743z M43.12,121.549
		c0.32-0.647,0.646-1.297,0.971-1.944c0.099-0.071,0.197-0.144,0.296-0.215c-0.057,0.112-0.115,0.226-0.172,0.336
		c-0.32,0.647-0.641,1.295-0.961,1.94c-0.335,0.685-0.67,1.367-1.006,2.051c-2.116,1.048-4.345,2.027-2.049,4.947
		c0.151,0.194-0.172,1.108-0.471,1.242c-0.485,0.215-1.196,0.217-1.707,0.02c-0.527-0.202-0.931-0.741-1.852-1.532
		c-0.689,1.978-1.248,3.487-1.748,5.021c-1.444,4.434-3.866,7.938-8.421,9.742c-2.952,1.168-4.775,3.689-7.018,6.346
		c3.516,0.934,4.451-2.899,7.945-3.271c-1.938,2.384-3.304,4.062-5.134,6.31c4.223,0.324,5.312-3.562,8.113-4.315
		c-0.386,1.22-1.011,2.144-1.623,3.067c-0.611,0.922-1.212,1.854-2.055,3.138c1.068,0,1.927,0.264,2.268-0.046
		c1.906-1.719,3.73-3.533,5.479-5.418c0.384-0.41,0.514-1.238,0.458-1.852c-0.488-5.716,2.438-9.688,6.375-13.33
		c1.271-1.172,1.978-2.992,2.781-4.595c0.194-0.387-0.127-1.508-0.396-1.575c-2.827-0.728-0.962-2.632-1.091-4.017
		C42.45,122.918,42.785,122.234,43.12,121.549z M130.132,188.567c2.043-0.264,2.838-1.809,4.229-4.031
		c-2.82,0.807-4.335,1.635-4.138,4.127c-0.33,0.348-0.66,0.695-0.991,1.043c-1.688-0.146-3.385-0.33-5.288,1.043
		c2.513,1.185,4.113,1.051,5.178-1.149C129.458,189.252,129.795,188.911,130.132,188.567z M68.133,196.558
		c1.769-0.733,3.574-1.394,5.274-2.263c0.352-0.18,0.307-1.133,0.442-1.729c-0.553-0.044-1.347-0.343-1.618-0.088
		c-1.4,1.319-2.672,2.785-3.986,4.196c-1.312,0.33-2.86,0.281-3.281,2.031c-0.025,0.104,0.156,0.369,0.262,0.383
		C67.114,199.313,67.445,197.728,68.133,196.558z M82.235,138.549c0.65,1.029,1.303,2.06,1.949,3.089
		c0.217,0.616,0.42,1.241,0.654,1.854c0.74,1.938,2.271,3.891-0.214,5.764c-0.092,0.07,0.629,1.219,0.972,1.863
		c0.604-0.353,1.557-0.564,1.758-1.076c1.131-2.875-0.115-5.838-3.296-8.297c0.229-1.58-0.405-2.619-1.949-3.08
		c-0.644-3.039-2.065-5.578-4.844-7.238C78.042,134.39,79.523,136.883,82.235,138.549z M127.052,184.485
		c0.794-0.148,1.594-0.268,2.38-0.451c4.171-0.971,4.171-0.976,1.669-4.475c1.642-0.736,3.379-1.318,4.868-2.287
		c0.636-0.413,1.142-2.33,1.042-2.387c-2.444-1.381-1.252-4.18-2.334-6.045c-2.963,1.537-3.721,2.83-3.539,5.607
		c0.115,1.741,0.086,3.494,0.121,5.243c-2.449,0.74-3.369,2.729-4.035,4.935c-0.889,0.771-1.778,1.541-3.059,2.65
		C127.214,187.292,127.214,187.292,127.052,184.485z M65.21,185.665c-2.072,1.528-4.177,3.019-6.174,4.639
		c-0.232,0.189-0.06,1.312,0.278,1.646c0.313,0.305,1.459,0.362,1.62,0.12c1.422-2.146,3.941-3.593,4.192-6.479
		c0.146-0.039,0.312-0.047,0.427-0.131c0.068-0.049,0.049-0.217,0.07-0.33C65.488,185.306,65.349,185.485,65.21,185.665z
		 M125.149,182.603c-1.854,1.313-3.709,2.636-5.569,3.94c-1.771,1.24-3.521,2.51-5.33,3.688c-3.5,2.275-3.519,2.253-4.81,5.271
		c4.101-2.787,7.615-4.93,10.83-7.459c1.89-1.486,3.289-3.586,4.91-5.41c0.125-0.266,0.25-0.531,0.376-0.797
		C125.421,182.09,125.285,182.347,125.149,182.603z M103.081,114.616c-0.746-0.561-1.492-1.119-2.236-1.679
		c-0.168,0.883-0.709,1.907-0.435,2.621c0.939,2.455,2.042,4.87,3.322,7.165c1.062,1.902,2.644,3.34,5.566,3.295
		c0.077-4.42-1.96-7.633-5.167-10.312C103.784,115.342,103.433,114.979,103.081,114.616z M83.125,193.575
		c2.402-0.406,1.469,1.844,2.299,2.973c1.309-0.648,2.678-1.217,3.896-2.01c0.405-0.262,0.714-1.545,0.593-1.623
		c-2.713-1.74-0.568-3.162,0.102-4.812c0.286-0.702-0.186-1.858-0.617-2.644c-0.196-0.36-1.346-0.637-1.684-0.401
		c-0.853,0.59-2.229,1.976-2.088,2.188c1.229,1.887-0.396,2.668-1.162,3.826c-0.523,0.787-0.845,1.711-1.257,2.57
		c-4.021,3.102-5.882,7.838-8.851,11.736c-0.22,0.291,0.104,1.361,0.488,1.646c0.415,0.309,1.457,0.391,1.771,0.092
		c0.798-0.758,1.458-1.723,1.964-2.711c1.275-2.492,2.492-5.021,3.625-7.586C82.659,195.807,82.828,194.663,83.125,193.575z
		 M61.227,164.538c-0.892,0.201-1.783,0.402-3.119,0.703c2.125,2.449,4.086,3.797,7.033,3.229c2.659-0.514,3.494-2.268,1.96-4.51
		c-1.115-1.629-2.294-3.217-3.447-4.826c-1.729,0.613-3.333,1.078-4.817,1.783c-0.395,0.188-0.432,1.121-0.628,1.713
		c0.437,0.039,0.912,0.213,1.304,0.102c2.286-0.671,2.152,0.471,1.552,1.999L61.227,164.538z M59.185,171.68
		c-0.586,0.16-1.438,0.656-1.72,0.433c-3.688-2.96-3.721-2.997-8.147-1.687c1.771,0.687,4.109,0.886,4.526,1.886
		c1.167,2.799,3.762,3.845,5.566,5.821c2.558-2.297,5.044-4.531,7.698-6.918c-2.606-1.211-4.178-0.514-5.596,1.279
		c-1.631,2.062-1.975,0.221-2.467-0.963c0.144-0.021,0.301-0.012,0.428-0.066c0.08-0.035,0.115-0.172,0.17-0.262
		C59.492,171.362,59.338,171.521,59.185,171.68z M117.249,177.737c-1.824,1.875-3.816,3.618-5.422,5.665
		c-1.373,1.751-0.809,2.923,1.154,3.823c1.444,0.662,2.546,0.201,3.622-0.713c3.396-2.887,6.832-5.729,10.166-8.688
		c0.84-0.746,1.606-1.781,1.93-2.83c0.226-0.736-0.36-1.726-0.583-2.601c-0.682,0.317-1.644,0.457-1.982,0.989
		c-0.971,1.521-1.605,3.257-2.549,4.8c-0.33,0.539-1.456,1.229-1.734,1.062c-2.396-1.465-2.854,0.521-3.561,1.918
		c-0.484,0.961-0.74,2.035-1.102,3.059c-0.298-0.059-0.596-0.114-0.894-0.174c0.268-2.146,0.537-4.295,0.805-6.442
		c1.65-0.66,3.334-1.255,4.937-2.022c0.465-0.224,0.688-0.941,1.023-1.437c-0.564-0.218-1.15-0.662-1.693-0.61
		C118.853,173.76,117.69,175.422,117.249,177.737z M88.124,112.581l0.125,0.127c-0.166-0.287-0.289-0.608-0.506-0.854
		c-1.469-1.641-2.074-1.665-2.752-0.113c-0.265,0.602-0.688,1.285-0.6,1.864c0.614,4.06,1.171,8.144,2.136,12.124
		c0.312,1.288,1.688,2.424,2.798,3.373c0.646,0.555,1.928,1.047,2.559,0.762c0.664-0.303,1.217-1.549,1.258-2.408
		c0.217-4.549-1.438-8.736-2.887-12.929C89.979,113.728,88.856,113.222,88.124,112.581z M115.167,72.633
		c-0.799-0.542-1.601-1.085-2.506-1.703c-1.102,0.88-2.224,1.778-3.238,2.593c0.032,2.656,2.974,4.147,2.4,6.854
		c-1.94-0.366-1.894-3.159-4.391-3.129c0.253,0.788,0.302,1.269,0.542,1.62c0.653,0.959,1.328,1.916,2.104,2.779
		c1.836,2.05,3.762,2.832,4.598,1.797c1.352-1.672-0.312-3.072-0.754-4.556c-0.229-0.772-0.942-1.394-1.209-2.162
		c-0.286-0.828-0.305-1.749-0.538-3.269c1.749,1.605,2.904,2.791,4.208,3.782c0.396,0.302,1.266,0.221,1.8,0.013
		c0.315-0.123,0.596-0.864,0.546-1.287c-0.11-0.979-0.381-1.954-0.688-2.896c-0.474-1.435-1.03-2.841-1.556-4.259
		c0.236-0.111,0.475-0.222,0.707-0.333c1.356,1.496,2.714,2.991,4.56,5.023c0.533-2.064,1.408-3.487,1.069-4.514
		c-1.001-3.058-2.477-5.961-3.768-8.925c-0.711,1.004-0.735,1.799-0.492,2.5c0.603,1.721,1.338,3.393,1.972,5.104
		c0.057,0.153-0.269,0.446-0.593,0.951c-0.834-1.278-1.596-2.443-2.287-3.503c-1.589,0.513-2.94,0.95-4.42,1.426
		C113.897,68.635,114.532,70.634,115.167,72.633L115.167,72.633z M51.241,184.545c0.115,0.644,0.067,1.383,0.38,1.912
		c3.35,5.73,6.736,11.439,10.165,17.129c0.505,0.84,1.142,1.689,1.928,2.236c0.556,0.385,1.465,0.258,2.216,0.355
		c-0.041-0.73,0.188-1.651-0.167-2.172c-1.688-2.463-3.521-4.826-5.331-7.207c-3.091-4.061-6.204-8.104-9.308-12.15
		c-0.617-2.383-1.235-4.768-1.854-7.146c0.146-0.028,0.286-0.061,0.431-0.088c1.799,2.738,3.6,5.479,5.793,8.814
		c0.73-1.943,1.346-3.088,1.584-4.301c0.542-2.766,0.173-3.031-3.312-2.69c-0.182-1.282-0.282-2.601-0.589-3.864
		c-0.134-0.555-0.977-1.459-1.015-1.438c-2.68,1.682-3.469-1.354-5.652-2.812c-0.221,2.859-0.386,4.99-0.522,6.756
		c-1.612-0.326-3.625-1.269-4.145-0.738c-1.698,1.722,0.455,2.793,1.375,4.016c0.298,0.395,0.84,0.662,1.003,1.092
		c0.321,0.844,0.705,1.783,0.621,2.642c-0.279,2.833,0.381,3.979,2.991,4.34c0.576,0.079,1.437-0.147,1.767-0.558
		c0.292-0.36,0.162-1.215-0.014-1.776c-0.535-1.716-2.21-3.089-1.784-5.533C49.161,182.622,50.201,183.584,51.241,184.545z
		 M41.189,174.67c-1.354-0.271-2.6,0.957-4.229-0.213c-0.824-0.59-2.938,0.553-4.429,1.037c-0.184,0.062-0.286,0.973-0.111,1.338
		c0.14,0.293,1.047,0.584,1.127,0.482c1.676-2.074,3.399-0.016,5.254-0.521c-0.257,0.887-0.374,1.354-0.527,1.808
		c-2.791,8.317-3.087,5.981,1.543,12.507c0.577,0.812,1.15,1.639,1.638,2.508c1.215,2.176,3.279,3.17,5.418,4.15
		c2.029,0.936,3.5,0.193,4.848-1.281c0.905-0.988,1.912-1.895,1.139-3.461c-0.852-1.729-2.232-2.338-4.079-2.193
		c-0.488,0.039-0.993-0.059-1.487-0.117c-3.542-0.438-4.453-1.373-4.949-4.979c-0.132-0.96-0.042-2.169-0.586-2.813
		c-2.271-2.695-1.852-5.476-0.674-8.373c0.896-0.332,2.63,0.647,2.422-1.773C42.622,173.491,41.906,174.081,41.189,174.67z
		 M78.206,167.579c0.205,0.404,0.326,0.906,0.645,1.176c0.218,0.187,0.71,0.043,1.081,0.047c-0.161-0.262-0.262-0.635-0.495-0.758
		c-0.393-0.209-0.869-0.26-1.31-0.377c-0.438-0.672-0.777-1.432-1.319-2.002c-2.172-2.291-4.475-4.459-6.59-6.799
		c-1.264-1.398-2.716-2.91-1.318-5.646c1.512,1.693,2.724,3.201,4.105,4.529c0.55,0.527,1.48,0.655,2.242,0.967
		c0.146-0.209,0.295-0.416,0.439-0.623c-1.099-1.676-2.195-3.352-3.773-5.758c3.501,0.768,4.889,3.91,7.946,3.639
		c-1.021-1.516-2.375-2.611-3.556-3.871c-0.445-0.477-0.493-1.322-0.721-2c0.702,0.188,1.476,0.252,2.09,0.6
		c1.295,0.727,2.455,1.702,3.773,2.375c0.621,0.314,1.483,0.162,3.129,0.293c-3.496-3.895-6.784-6.441-10.999-7.74
		c-1.058-0.326-2.603-0.569-2.979-1.324c-1.53-3.059-3.568-5.913-3.492-9.684c0.045-2.229-0.825-4.488-1.424-6.697
		c-0.095-0.35-1.022-0.812-1.391-0.688c-1.133,0.38-2.516,0.767-3.159,1.628c-0.579,0.771-0.474,2.194-0.373,3.303
		c0.104,1.135,0.317,2.396,0.914,3.328c3.458,5.396,4.368,11.334,4.332,17.604C65.962,161.013,70.266,165.965,78.206,167.579z
		 M140.209,83.578c0.621,6.601,1.18,13.208,1.885,19.799c0.53,4.95,0.935,9.948,1.995,14.793c0.694,3.177,2.383,6.154,3.797,9.14
		c0.363,0.769,1.377,1.228,2.092,1.828c0.437-0.815,1.215-1.623,1.234-2.448c0.061-2.48-0.119-4.977-0.318-7.456
		c-0.104-1.313-0.561-2.601-0.658-3.914c-0.7-9.448-1.361-18.898-2.014-28.35c-0.104-1.496,0.021-3.045-2.057-4.038
		c-0.986,12.105,1.882,23.996,0.354,35.923c-1.957-11.946-2.847-23.987-3.567-36.397c-1.159,0.528-2.025,0.922-2.895,1.317
		c-0.578-1.107-0.742-2.618-2.812-2.6c0,4.829,0,9.634,0,14.439c0,4.727,1.586,9.396,0.489,14.175
		c-1.725-7.45-2.229-15.036-2.428-22.625c-0.079-3.095,0.094-5.854-3.885-6.489c-0.66-0.104-1.209-0.903-1.979-1.518
		c-1.543,6.723,1.765,13.068,0.123,19.472c-1.058-4.886-1.799-9.792-2.295-14.721c-0.483-4.814,0.246-9.766-1.639-15.383
		c-0.398,1.556-0.73,2.193-0.694,2.808c0.441,7.463,0.71,14.947,1.521,22.373c0.371,3.407,1.77,6.716,2.84,10.024
		c0.258,0.795,1.074,1.409,1.881,2.417c2.019-4.108-0.414-7.603-0.014-11.158c0.414-3.674-0.619-7.456,0.696-12.202
		c0.66,1.599,1.146,2.273,1.191,2.977c0.141,2.157-0.018,4.336,0.176,6.485c0.623,6.928,0.64,13.96,2.98,20.625
		c0.842,2.394,1.575,4.967,3.887,6.707c1.254-3.117,1.161-5.037,0.738-9.322c-0.782-7.929-1.297-15.885-1.885-23.834
		C138.869,85.308,138.644,84.017,140.209,83.578z M138.196,51.607c-2.401,0.481-3.844-1.21-5.729-2.85
		c-0.845,1.785-1.578,3.335-2.312,4.885l0.173-0.114c-3.267,1.086-3.432,1.104-3.137,3.891c0.438,4.116,1.04,8.221,1.76,12.298
		c0.396,2.265,1.058,4.505,1.838,6.67c0.301,0.833,1.264,1.428,1.924,2.132c0.699-0.844,1.538-1.613,2.051-2.558
		c0.372-0.685,0.451-1.609,0.42-2.417c-0.144-3.814-0.271-7.634-0.599-11.436c-0.256-2.989-0.712-5.953,0.425-8.998
		c1.748,9.086,0.79,18.738,5.846,27.845c0.986-1.707,1.777-2.736,2.224-3.898c1.778-4.678,1.221-9.487,0.632-14.291
		c-0.518-4.195-0.987-8.396-1.479-12.594c1.031,0.354,1.567,0.855,1.646,1.419c0.479,3.62,0.909,7.248,1.265,10.883
		c0.387,3.966,0.499,7.966,1.072,11.902c0.328,2.261,1.221,4.47,2.088,6.609c0.354,0.879,1.575,0.942,1.957,0.007
		c0.545-1.332,1.01-2.852,0.93-4.258c-0.416-7.295-1.022-14.58-1.545-21.87c-0.203-2.854-0.346-5.712-0.516-8.569
		c-2.406,4.282-0.193,8.522-0.436,12.784c-0.261,4.624-0.06,9.273-0.06,13.912c-0.664-1.083-1.185-2.276-1.279-3.504
		c-0.438-5.47-0.725-10.952-1.141-16.424c-0.084-1.1-0.186-2.42-0.812-3.213c-1.386-1.748-3.112-3.225-4.979-5.088
		c-0.797,2.371-1.573,4.677-2.352,6.984L138.196,51.607z M30.127,39.575c0.679-1.025,1.355-2.05,2.038-3.075
		c0.329,0.238,0.654,0.476,0.983,0.713c-0.433,5.143-4.144,10.296-0.217,15.851c3.745-3.466,3.145-8.777,6.317-12.933
		c0.088,2.005,0.145,3.304,0.204,4.66c0.819-0.748,1.461-1.33,2.352-2.141c-0.146,3.828-0.573,5.229-2.197,8.317
		c-0.254,0.483-0.169,1.146-0.238,1.726c0.685-0.223,1.551-0.262,2.009-0.715c0.552-0.545,0.781-1.432,1.106-2.188
		c0.56-1.285,1.081-2.584,1.812-4.341c1.999,3.48-1.755,7.082,1.475,9.764c3.29-2.368,3.909-5.552,3.429-9.245
		c-0.49-3.752-1.569-7.504-0.194-11.333c0.179-0.497-0.401-1.55-0.929-1.97c-2.977-2.366-5.953-4.745-9.104-6.866
		c-2.569-1.729-5.475-1.959-8.584-1.384c-4.16,0.77-7.027,3.375-8.8,6.728c-2.842,5.378-5.033,11.103-7.412,16.719
		c-0.547,1.292,0.492,1.983,1.54,1.75c1.393-0.311,3.062-0.747,3.934-1.731c1.5-1.696,2.56-3.812,3.651-5.833
		c1.309-2.416,2.462-4.916,4.069-8.158c0.484,1.583,0.672,2.183,0.854,2.783c-3.443,4.612-5.022,9.655-3.854,16.137
		C28.939,48.977,29.773,44.381,30.127,39.575z M83.111,54.717c-0.061-0.65-0.072-1.31-0.19-1.949c-0.274-1.49-1.238-2.509-2.7-2.19
		c-0.936,0.205-1.964,1.092-2.465,1.955c-1.201,2.067,0.002,3.867,0.908,6.032c1.755-1.538,3.188-2.792,4.616-4.045
		c0.161,1.933-1.313,4.062,0.747,6.186c0.896-1.322,1.54-2.454,2.366-3.432c0.452-0.535,1.412-1.281,1.795-1.118
		c1.418,0.604,1.674-0.278,2.164-1.188c4.756-8.807,7.308-18.166,6.799-28.207c-0.129-2.55-0.969-5.065-1.508-7.718
		c2.437-0.798,5.088,0.38,7.7-1.456c-2.88-0.939-5.258-1.51-7.455-2.487c-2.266-1.007-4.335-2.447-6.526-3.63
		c-5.148-2.779-10.961-2.657-16.405-2.506C69.253,9.067,65.461,11.459,62,13.356c-5.001,2.74-7.688,7.19-7.94,12.996
		c-0.03,0.686-0.271,1.363-0.521,2.535c-0.993-1.141-1.503-1.726-2.423-2.782c0,5.293-0.161,9.949,0.047,14.588
		c0.19,4.311,0.63,8.625,1.261,12.894c0.283,1.916,1.342,3.709,1.974,5.584c0.626,1.861,1.387,3.717,1.691,5.639
		c1.1,6.885,2.049,13.794,3.015,20.699c0.229,1.622,0.686,3.03,2.726,4.498c-0.411-3.846-0.688-6.95-1.084-10.038
		c-0.807-6.244-1.688-12.479-2.497-18.722c-0.062-0.459,0.041-1.06,0.31-1.405c0.268-0.342,0.854-0.628,1.274-0.597
		c0.392,0.029,0.888,0.436,1.085,0.81c0.214,0.407,0.142,0.967,0.185,1.462c0.744,8.609,1.477,17.22,2.249,25.827
		c0.067,0.752,0.419,1.479,0.979,3.346c0.924-2.13,1.558-3.199,1.857-4.354c1.479-5.639,0.207-11.233-0.521-16.805
		c-0.705-5.378-2.736-10.677-0.483-16.15c0.239-0.58,0.131-1.32,0.117-1.984c-0.138-6.485-0.462-12.939-3.018-19.046
		c-1.4-3.354-0.646-6.628,0.963-9.587c2.608-4.81,7.091-5.389,11.022-1.704c0.418,0.392,0.896,0.723,1.343,1.082
		c0.174-0.12,0.347-0.241,0.519-0.361c-0.642-1.545-1.278-3.091-1.953-4.724c7.863,0.263,12.547,4.546,12.874,11.711
		c0.126,2.749,1.062,5.482,0.104,8.291c-0.233,0.693,0.259,1.635,0.646,3.677c1.634-3.299,2.711-5.476,3.789-7.651
		c0.242,0.066,0.486,0.133,0.729,0.2c0,1.961,0,3.923,0,5.884c0.252,0.015,0.505,0.03,0.758,0.045
		c0.557-1.974,1.109-3.949,1.667-5.922c1.575,4.702-0.738,8.704-1.902,13.205c-1.053-2.005-1.938-3.696-2.84-5.416
		c-1.36,0.583-2.509,1.526-3.42,1.336c-0.858-0.178-1.474-1.549-2.332-2.562c-1.799,2.761-3.076,5.468-3.086,8.858
		c1.188-1.259,2.379-2.519,3.995-4.229c-0.408,1.934-0.826,3.328-0.951,4.748c-0.063,0.725,0.397,1.497,0.625,2.248
		c0.702-0.335,1.623-0.498,2.059-1.046c0.705-0.886,1.076-2.033,1.617-3.054c0.496-0.938,1.033-1.855,1.551-2.781
		c0.199,0.083,0.398,0.166,0.599,0.249c-0.591,3.064-1.18,6.127-1.755,9.118c-0.833-0.354-1.627-1.021-2.215-0.872
		C85.433,53.408,84.294,54.15,83.111,54.717z M81.262,106.747l-0.169-0.156c-0.013,1.4,0.186,2.879,1.895,2.809
		c0.436-0.021,1.006-1.811,1.133-2.831c0.189-1.546,0.05-3.134,0.05-4.705c1.243,0.514,1.577,1.169,1.843,1.85
		c0.718,1.838,1.316,3.735,2.156,5.516c0.295,0.623,1.133,1.016,1.774,1.424c0.104,0.062,0.751-0.396,0.726-0.508
		c-0.182-0.703-0.274-1.658-0.771-2.014c-2.472-1.769-2.354-4.384-2.605-6.969c0.746,0.409,1.267,0.95,1.608,1.585
		c1.524,2.812,0.86-2.122,1.684-1c1.853,1.825,1.854,5.093,5.123,4.317c0.026,0.726,0.177,1.474,0.021,2.149
		c-0.056,0.244-1.622-0.541-1.116,0.644c0.604,1.414,1.73,2.604,2.743,4.056c1.875-2.359-0.395-4.031-0.021-5.523
		c0.52-2.102-0.237-2.791-1.79-3.74c-3.043-1.863-5.188-4.616-6.551-7.909c-0.176-0.417,0.274-1.093,0.438-1.648
		c0.415,0.187,0.961,0.266,1.219,0.582c0.732,0.896,1.26,1.969,2.025,2.826c1.323,1.475,2.711,2.904,4.184,4.229
		c1.033,0.93,2.58,1.58,3.539,0.398c0.67-0.824,0.812-2.521,0.477-3.609c-0.475-1.534-1.524-2.92-2.475-4.269
		c-1.289-1.838-2.715-3.582-4.217-5.542c2.44-0.975,2.953,0.844,3.779,1.849c1.801,2.189,3.474,4.523,6.391,5.293
		c0.697,0.185,1.801,0.135,2.219-0.293c0.437-0.444,0.576-1.625,0.3-2.229c-0.992-2.151-2.22-4.194-3.354-6.278
		c1.201,0.163,1.935,0.731,2.66,1.304c0.91,0.718,1.75,1.557,2.741,2.133c1.223,0.71,2.327-0.072,2.284-1.48
		c-0.097-3.165-2.746-7.555-5.819-9.53c0.633,2.091,1.24,4.099,1.849,6.105l-0.139,0.136c-1.455-0.495-2.626-3.793-4.515-0.413
		c-0.21,0.375-1.21,0.439-1.844,0.425c-3.062-0.067-6.271-3.383-6.854-7.517c1.219,1.24,2.09,2.172,3.011,3.052
		c1.278,1.221,2.534,3.397,4.5,2.044c1.695-1.167,0.962-3.312,0.203-5.032c-0.755-1.712-1.573-3.396-2.669-5.745
		c2.574,1.695,4.424,2.914,6.279,4.135c3.086-4.104-1.359-7.083-0.854-11.238c0.845,1.159,1.245,1.836,1.771,2.399
		c1.151,1.244,1.977,3.766,4.098,2.592c1.852-1.023,0.92-3.241,0.519-5.013c-0.337-1.489-1.724-2.795-0.938-4.791
		c1.666,1.118,3.122,2.096,4.717,3.167c2.312-3.549-0.672-6.714-0.385-10.259c1.562,1.582,2.771,2.802,4.282,4.328
		c2.153-4.931-0.817-8.888-0.842-14.177c1.102,1.662,1.728,2.333,2.036,3.127c1.289,3.295,1.659,6.733,1.49,10.263
		c-0.151,3.184,0.499,6.113,3.308,8.84c2.747-5.373,1.975-10.299-0.344-14.652c-2.112-3.975-2.041-7.783-1.438-11.879
		c0.646,1.883,0.977,3.833,1.466,5.741c0.366,1.429,0.732,2.928,1.481,4.164c0.53,0.875,1.637,1.69,2.608,1.883
		c0.471,0.093,1.453-1.213,1.83-2.053c1.18-2.634,1.552-5.374,0.791-8.257c-0.402-1.524-0.461-3.14-0.674-4.713
		c2.861,3.922,2.319,9.224,6.055,12.995c2.098-2.576,2.712-5.368,2.839-8.098c0.131-2.828-0.462-5.688-0.736-8.535
		c1.288,1.541,2.044,3.18,2.606,4.882c0.57,1.72,0.73,3.605,1.482,5.227c0.694,1.501,0.623,3.835,3.154,3.928
		c0.563-1.676,1.327-3.32,1.615-5.043c0.179-1.067-0.343-2.26-0.587-3.388c-0.439-2.039-0.91-4.072-1.551-6.917
		c4.549,5.464,4.828,13.542,13.006,14.934c-0.781-8.331-5.67-17.861-11.508-22.761c-6.19-5.197-14.158-5.217-20.492-0.019
		c-4.424,3.629-7.971,8.062-10.867,12.925c-5.774,9.697-11.188,19.61-16.966,29.309c-3.05,5.123-6.419,10.07-9.901,14.912
		c-1.319,1.84-3.272,3.28-5.114,4.67c-0.866,0.653-2.208,1.151-3.221,0.991c-0.871-0.138-1.578-1.31-2.293-1.967
		c-1.368,1.493-2.583,2.819-3.989,4.356c-0.651-0.731-1.049-1.212-1.48-1.654c-1.705-1.74-2.63-1.778-3.763,0.206
		c-0.708,1.239-1.06,2.735-1.314,4.162c-0.2,1.105-0.008,2.282,0.009,3.427l0.112-0.1c-0.628,0.677-1.913,1.576-1.771,1.993
		c0.701,2.084,0.46,4.655,2.994,6.495c1.167-1.748,2.233-3.344,3.465-5.183c0.716,2.98,1.251,5.57,2.005,8.095
		c0.197,0.669,1.022,1.511,1.645,1.582c0.487,0.06,1.385-0.849,1.604-1.494c0.65-1.929,1.061-3.939,1.812-6.896
		c0.566,1.936,0.861,2.973,1.174,4.004C80.511,104.363,80.89,105.555,81.262,106.747z M76.456,27.68
		c-1.381-2.427-1.951-3.853-2.904-4.942c-0.547-0.625-1.767-1.071-2.601-0.962c-3.871,0.503-7.238,5.721-5.972,9.355
		c2.607,7.469,3.446,15.157,3.168,22.999c-0.083,2.329,0.678,4.106,2.888,5.789c4.333-9.178,9.969-17.446,12.571-27.15
		c0.421-1.571,0.604-3.286,0.484-4.903c-0.177-2.381-1.169-4.508-3.271-5.881c-1.112-0.728-2.141-0.862-2.637,0.805
		C77.786,24.132,77.256,25.438,76.456,27.68z M55.244,119.401c-0.114,0.012-0.229,0.021-0.346,0.031
		c-0.216,1.107-0.419,2.217-0.65,3.318c-0.549,2.594-0.157,5.713-4.018,6.344c-0.661,0.107-0.854,1.223,0.443,1.617
		c0.595,0.183,1.426,1.014,1.406,1.521c-0.059,1.397-1.133,1.354-2.182,0.983c-1.158-0.412-1.597,0.25-1.509,1.201
		c0.09,0.977,0.646,1.918,0.688,2.89c0.262,6.124,1.115,12.517-6.233,15.636c-0.588,0.249-1.131,0.74-1.543,1.242
		c-1.165,1.419-3.159,2.365-3.06,4.85c3.137-0.072,3.397-4.164,6.988-4.252c-1.382,2.166-2.441,3.832-3.641,5.707
		c3.516,0.631,3.162-3.801,6.322-3.928c-0.634,1.441-1.196,2.553-1.58,3.725c-0.104,0.314,0.272,0.875,0.568,1.194
		c0.125,0.136,0.729,0.063,0.905-0.116c0.8-0.814,1.572-1.668,2.266-2.576c0.585-0.767,0.979-1.684,1.599-2.416
		c0.229-0.272,1.188-0.391,1.249-0.274c0.261,0.487,0.612,1.301,0.392,1.618c-1.408,2.039-3.02,3.939-4.425,5.98
		c-0.421,0.61-0.729,2.077-0.511,2.213c0.769,0.471,1.961,0.95,2.672,0.655c1.138-0.474,2.298-1.383,2.962-2.42
		c2.719-4.244,2.958-8.712,0.604-13.229c-2.299-4.408-1.87-9.043-0.447-13.435c0.738-2.287,1.11-4.433,1.089-6.758
		C55.215,126.948,55.244,123.174,55.244,119.401z M154.011,83.791c0.868,12.79,1.691,24.917,2.514,37.043
		c-0.328,0.045-0.653,0.09-0.98,0.133c-0.438-2.514-1.077-5.016-1.268-7.549c-0.539-7.295-0.836-14.606-1.354-21.904
		c-0.174-2.461-0.729-4.895-1.105-7.341c-1.125,0.746-1.636,1.467-1.631,2.185c0.021,3.824,0.029,7.658,0.314,11.468
		c0.42,5.62,0.95,11.237,1.647,16.829c0.769,6.107,1.718,12.204,6.162,17.008c1.108,1.195,2.19,2.402,4.5,2.387
		c-0.338-1.498-0.647-2.715-0.883-3.943c-0.923-4.882-2.141-9.73-2.655-14.658c-0.932-8.912-1.439-17.873-2.115-26.814
		C157.016,86.785,156.892,84.953,154.011,83.791z M20.294,133.032c3.188-2.554,4.718-5.072,5.06-8.438
		c1.155-11.369,2.438-22.727,3.63-34.093c0.162-1.543,0.219-3.162-1.607-4.457c-2.823,12.017-1.855,24.179-4.846,35.808
		c-0.07-5.316,0.499-10.583,0.645-15.859c0.141-5.236,1.959-10.416,0.753-15.769c-0.509,0.161-1.059,0.211-1.089,0.362
		c-2.523,12.844-1.614,25.991-3.357,38.909C19.362,130.374,19.883,131.336,20.294,133.032z M49.969,119.206
		c-1.932,3.61-3.59,5.992-4.021,9.039c-0.431,3.021-1.854,5.465-4.039,7.752c-2.722,2.846-5.484,6.143-4.812,10.471
		c0.884,5.701-1.452,9.974-5.083,13.896c-0.896,0.973-1.807,1.943-2.584,3.008c-0.192,0.264-0.04,1.135,0.218,1.291
		c0.457,0.277,1.399,0.506,1.646,0.26c1.035-1.043,2.25-2.131,2.746-3.447c1.903-5.059,5.573-8.52,9.769-11.604
		c0.775-0.57,1.858-1.262,2.01-2.05c0.595-3.067,1.663-6.366,1.062-9.271c-0.775-3.723-0.071-6.838,1.298-10.053
		C49.279,125.905,49.997,123.262,49.969,119.206z M57.174,121.415c0,2.783,0.013,5.568-0.004,8.354
		c-0.011,1.812,0.394,3.785-0.184,5.403c-2.562,7.211-0.432,13.979,1.509,20.805c0.385,1.355,1.309,1.74,2.649,1.619
		c1.396-0.129,2.067-0.741,2.101-2.182c0.115-5.646,0.552-11.396-2.157-16.58c-1.865-3.565-2.291-7.129-1.917-11.033
		C59.381,125.616,59.688,123.206,57.174,121.415z M23.888,77.936c-0.254-0.035-0.509-0.071-0.764-0.106
		c0.211-4.127,0.421-8.255,0.632-12.382c0.135-2.656,0.352-5.312,0.354-7.969c0.001-0.798-0.587-1.598-1.294-3.373
		c-0.321,1.723-0.498,2.335-0.548,2.958c-0.355,4.475-0.911,8.948-0.974,13.428c-0.07,4.955-1.704,9.905-0.169,14.86
		c0.262,0.845,0.851,1.588,1.288,2.379c0.689-0.635,1.611-1.146,2.037-1.926c1.842-3.405,2.692-7.08,2.842-10.966
		c0.231-6.147,0.564-12.292,0.991-18.429c0.069-1.042,0.854-2.021,1.214-3.062c0.133-0.386,0.154-1.018-0.067-1.259
		c-0.218-0.233-1.042-0.305-1.218-0.108c-1.232,1.381-2.463,2.323-2.396,4.885c0.167,6.277-0.699,12.583-1.21,18.872
		C24.549,76.484,24.137,77.203,23.888,77.936z M67.226,122.487c-0.479,0.689-0.646,0.82-0.655,0.959
		c-0.014,0.324-0.057,0.721,0.102,0.969c2.438,3.885,3.492,8.035,3.583,12.691c0.056,2.893,1.398,5.771,5.022,6.631
		c1.365,0.324,2.557,1.443,3.784,2.26c1.193,0.789,2.337,1.656,3.706,2.635c0.257-4.082,0.365-4.186-2.275-6.983
		c-3.016-3.19-5.527-6.729-6.914-10.84C72.384,127.28,69.933,125.054,67.226,122.487z M151.542,46.698
		c-0.142,1.396-0.329,2.209-0.281,3.006c0.459,7.6,0.945,15.198,1.456,22.795c0.101,1.489,0.122,3.039,0.565,4.437
		c0.754,2.368,1.313,5.076,4.821,5.7c0-2.168,0.084-3.967-0.017-5.756c-0.277-4.965-0.664-9.924-0.944-14.89
		c-0.225-3.976-0.313-7.959-0.565-11.933c-0.04-0.63-0.609-1.228-1.457-2.831c-1.402,5.005-0.411,8.916-0.315,12.803
		c0.099,4.023,0.022,8.051,0.022,12.077c-0.34,0.028-0.679,0.057-1.017,0.084C152.308,63.991,153.782,55.445,151.542,46.698z
		 M30.871,85.842c3.023-3.006,3.259-6.456,3.691-9.926c0.882-7.039-0.271-14.324,2.535-21.137c0.146-0.354-0.051-1.064-0.342-1.316
		c-0.237-0.206-1.006-0.145-1.277,0.095c-1.359,1.203-2.307,2.403-2.342,4.584c-0.108,6.691-0.685,13.376-1.079,20.062
		c-1.093-7.362-0.731-14.718-1.143-22.044C28.306,70.428,28.315,81.276,30.871,85.842z M77.011,186.351
		c-0.08,1.599-0.116,2.317-0.152,3.034c0.475-0.452,1.033-0.846,1.396-1.373c0.654-0.954,1.041-2.135,1.824-2.942
		c0.621-0.642,2.008-1.448,2.471-1.18c2.705,1.571,3.782-1.33,5.663-1.896c1.104-0.332,0.887-1.933-0.275-2.213
		c-1.935-0.471-3.924-0.707-5.875-1.121c-0.555-0.119-1.179-0.391-1.554-0.791c-1.095-1.179-1.606-1.301-1.716-0.293
		c-0.314,2.879-1.528,5.004-4.239,6.198c-0.248,0.106-0.458,0.515-0.517,0.812c-0.802,4.02-3.931,4.879-7.292,5.752
		c-1.678,0.438-3.188,1.633-4.665,2.642c-0.963,0.657-1.03,1.628-0.18,2.562c0.825,0.899,1.659,0.91,2.604,0.178
		c1.181-0.915,2.398-1.78,3.597-2.678C70.885,190.956,73.664,188.866,77.011,186.351z M90.479,139.924
		c1.783-0.106,2.684,0.058,3.355-0.258c0.768-0.357,1.834-1.117,1.865-1.746c0.032-0.727-0.777-1.953-1.474-2.172
		c-3.205-1.008-6.513-1.61-10.41-1.584c1.033,1.904,1.746,3.367,2.587,4.746c2.535,4.147,4.843,8.27,2.697,13.42
		c-0.636,1.523-0.341,3.193,2.062,4.125c-0.238-3.436,2.166-5.199,3.732-7.473c1.682-2.434,1.212-3.766-1.507-4.879
		c-1.209-0.496-3.441-0.668-0.322-1.854C92.481,141.724,91.895,141.196,90.479,139.924z M72.768,61.502
		c-1.483,2.155-2.757,3.682-3.646,5.406c-0.574,1.108-0.863,2.519-0.807,3.771c0.189,3.965,0.596,7.921,0.943,11.877
		c0.041,0.463,0.27,0.91,0.455,1.502c0.959-0.475,1.823-0.903,2.854-1.415c0.436,0.998,0.835,1.926,1.443,3.328
		c1.904-2.811,3.038-5.327,3.862-8.755c-1.979,1.397-3.337,2.357-4.799,3.39c-0.61-2.011-0.851-3.662-1.624-5
		c-0.415-0.714-1.244-1.082-0.359-1.872c0.471-0.42,1.317-1.013,1.663-0.845c0.555,0.269,0.92,1.067,1.204,1.712
		c0.234,0.538,0.241,1.179,0.503,2.632c1.107-1.77,1.894-2.803,2.405-3.956c0.169-0.382-0.201-1.258-0.596-1.596
		c-4.233-3.642-4.245-3.624-3.214-8.215C73.126,63.175,72.976,62.834,72.768,61.502z M87.209,207
		c5.038,1.347,7.085,0.607,9.271-3.192c2.226-3.865,4.393-7.765,6.681-11.589c0.797-1.332,1.94-2.739,0.12-3.785
		c-1.493-0.859-2.172,0.962-2.908,1.852c-4.02,4.828-7.951,9.725-11.891,14.618C87.989,205.516,87.655,206.256,87.209,207z
		 M39.312,56.487c-0.432-0.015-0.861-0.029-1.296-0.043c-0.856,8.573-2.528,17.131-0.069,26.928
		c1.116-1.948,1.888-2.838,2.173-3.863c1.688-6.066,2.979-12.212,3.13-18.542c0.028-1.325,0.127-2.678-0.1-3.967
		c-0.115-0.679-0.861-1.248-1.324-1.867c-0.271,0.642-0.721,1.265-0.787,1.927c-0.562,5.422-1.031,10.853-1.584,16.274
		c-0.064,0.631-0.467,1.228-0.708,1.84c-0.224-0.049-0.442-0.098-0.663-0.146C38.491,68.847,38.901,62.667,39.312,56.487z
		 M74.417,176.706c1.397-0.604,2.523-0.947,3.464-1.57c0.409-0.27,0.725-1.229,0.554-1.676c-0.17-0.44-1.001-0.881-1.544-0.883
		c-1.394-0.006-3.097,0.799-4.111,0.244c-1.633-0.891-2.396-0.49-3.294,0.734c-0.451,0.619-1.145,1.779-1.429,1.693
		c-2.343-0.701-2.36,1.104-2.794,2.418c-0.287,0.867-0.424,1.785-0.653,2.789c-1.052-0.66-1.81-1.139-2.564-1.611
		c-0.323,0.875-0.83,1.73-0.921,2.629c-0.113,1.113,0.119,2.263,0.254,4.115c2.99-2.615,5.503-4.815,7.886-6.9
		c1.557,0.939-0.655,2.674,1.333,3.031c1.904,0.342,5.177-0.561,5.333-1.77C76.044,179.058,75.077,178.024,74.417,176.706z
		 M97.509,170.868c-0.294-0.056-0.695-0.264-0.867-0.145c-3.33,2.341-6.885,3.182-10.83,1.791c-0.92-0.323-1.889-0.797-2.806-0.738
		c-0.632,0.041-1.211,0.881-1.815,1.362c0.455,0.425,0.854,1.118,1.374,1.224c1.294,0.264,2.646,0.244,3.97,0.366
		c2.348,0.215,5.584-1.451,6.045,2.841c0.021,0.193,0.521,0.426,0.825,0.484c2.846,0.543,4.363,2.855,6.362,4.578
		c2.518,2.164,5.195,4.152,7.923,6.043c0.957,0.664,2.268,0.816,3.412,1.203c0.148-0.303,0.295-0.605,0.442-0.91
		c-1.31-0.873-2.579-1.803-3.927-2.607c-3.011-1.799-5.433-3.925-4.772-7.998c-0.544,1.354-0.827,2.943-2.731,1.877
		c-2.471-1.383-4.573-3.184-6.01-5.755C95.31,173.133,97.882,173.327,97.509,170.868z M81.035,120.844
		c-2.374-3.561-3.368-7.584-2.378-12.432c-3.994,2.973-2.741,6.619-2.285,9.603c0.625,4.09,1.644,8.401,5.833,10.764
		c0.435-0.446,0.844-0.672,0.839-0.889c-0.094-4.613-0.163-9.229-0.417-13.834c-0.064-1.166-0.607-2.429-2.705-2.737
		C80.322,114.733,80.679,117.79,81.035,120.844z M32.027,87.763c-1.834,2.073-1.73,4.062-1.894,6.002
		c-0.396,4.774-0.901,9.54-1.276,14.315c-0.387,4.943-0.719,9.896-0.953,14.854c-0.034,0.775,0.576,1.582,1.032,2.74
		c1.879-1.896,2.992-3.219,1.587-5.528c-0.605-1.001-0.548-2.55-0.438-3.821c0.493-5.762,1.043-11.521,1.708-17.267
		C32.208,95.48,32.53,91.927,32.027,87.763z M49.604,53.695c-0.848,1.098-1.417,1.899-2.051,2.645
		c-3.568,4.198-2.59,8.976-1.674,13.7c0.123,0.632,0.973,1.298,1.641,1.573c0.315,0.129,1.202-0.518,1.479-1.011
		c1.433-2.567,2.775-5.186,4.081-7.822c0.187-0.379,0.107-1.009-0.069-1.427C51.982,58.944,50.889,56.564,49.604,53.695z
		 M63.501,100.011c-0.528,3.632,3.247,6.919,1.002,11.136c-0.656-1.906-1.221-3.546-1.82-5.29c-2.971,2.042,0.534,4.509-0.823,6.522
		c-0.151,0.229,0.104,1.051,0.391,1.209c2.23,1.248,3.092,3.312,3.622,5.64c0.265,1.165,1.074,1.69,2.213,1.175
		c1.359-0.619,0.684-1.63,0.271-2.49c-0.205-0.43-0.52-0.972-0.912-1.113c-1.321-0.479-1.131-1.291-0.833-2.354
		C68.069,109.252,67.354,104.418,63.501,100.011z M66.673,200.756c0.865,1.453,1.474,2.789,2.365,3.9
		c1.168,1.454,2.538,1.404,3.68-0.183c1.83-2.541,3.519-5.188,5.205-7.827c1.104-1.729,0.714-3.094-1.688-4.17
		c-0.443,1.979-0.857,3.809-1.274,5.654c-0.991-0.483-1.592-2.088-3.166-0.785C70.3,198.583,68.561,199.521,66.673,200.756z
		 M96.773,114.049c-0.54,3.99,1.784,6.266,1.059,10.131c-1.838-4.385-4.108-7.373-3.095-11.324c0.104-0.408-0.659-1.042-1.021-1.568
		c-0.479,0.551-1.461,1.235-1.356,1.633c1.014,3.828,2.088,7.649,3.408,11.381c0.481,1.357,1.595,2.527,2.569,3.652
		c0.342,0.396,1.146,0.557,1.719,0.52c0.306-0.021,0.783-0.682,0.814-1.079C101.235,122.786,99.989,118.674,96.773,114.049z
		 M23.167,177.245c-0.081,2.225,1.293,3.367,2.714,3.924c4.646,1.816,7.198,5.439,9.138,9.727c0.271,0.6,0.621,1.212,1.092,1.646
		c0.455,0.418,1.115,0.615,1.688,0.91c-0.02-1.222-0.462-1.877-0.863-2.562c-1.561-2.661-3.889-5.146-1.978-8.623
		c0.124-0.228,0.045-0.815-0.122-0.91c-1.592-0.884-3.227-1.696-4.847-2.53C27.296,180.769,25.648,177.553,23.167,177.245z
		 M72.922,114.221c-1.457-2.695-3.29-5.282-1.406-8.438c0.246-0.412-0.054-1.148-0.101-1.734c-0.581,0.052-1.457-0.113-1.687,0.197
		c-0.625,0.854-1.508,2.006-1.351,2.869c0.825,4.526,1.888,9.018,3.003,13.483c0.193,0.771,1.039,1.383,1.752,2.276
		c1.521-4.131,1.396-9.766-0.214-13.03C72.922,111.471,72.922,112.846,72.922,114.221z M18.07,166.508
		c1.896,2.761,3.568,5.328,5.408,7.773c0.391,0.516,1.38,0.574,2.098,0.848c0.241-0.903,0.911-1.963,0.65-2.688
		c-0.767-2.126-1.973-4.089-2.87-6.176c-0.673-1.562-1.552-2.01-3.03-1.062C19.669,165.625,18.979,165.987,18.07,166.508z
		 M61.722,96.623c-3.57,1.644-5.42,3.504-6.674,5.883c-0.596,1.13-0.955,2.459-1.081,3.735c-0.066,0.666,0.542,1.952,0.95,1.998
		c0.826,0.09,1.81-0.341,2.56-0.82c0.492-0.312,0.778-1.055,1.002-1.664C59.479,103.033,60.426,100.29,61.722,96.623z
		 M107.673,183.256c4.447-4.28,9.4-8.178,12.424-14.748C114.32,172.243,108.07,179.459,107.673,183.256z M101.543,186.15
		c-2.333-1.636-4.287-3.007-6.243-4.379c-1.354,2.575,0.099,4.983,0.479,7.446c0.107,0.697,0.54,1.343,0.994,2.412
		C98.389,189.773,99.663,188.311,101.543,186.15z M84.255,155.521c3.314,5.435,10.178,11.306,13.334,11.817
		C95.015,163.151,90.886,159.403,84.255,155.521z M92.833,169.054c-2.57-3.945-6.004-7.037-9.813-9.738
		c-0.172-0.121-0.766,0.009-0.854,0.179c-0.188,0.364-0.385,1.047-0.206,1.229C85.179,163.95,88.153,167.487,92.833,169.054z
		 M33.114,105.854c0.187,0.012,0.369,0.025,0.556,0.037c0.767-6.195,1.542-12.39,2.289-18.587c0.098-0.81,0.104-1.64,0.05-2.454
		c-0.02-0.248-0.459-0.705-0.573-0.667c-0.415,0.14-1.044,0.399-1.099,0.702c-0.144,0.786,0.016,1.621-0.009,2.434
		c-0.094,2.955-0.14,5.913-0.333,8.861C33.776,99.41,33.413,102.63,33.114,105.854z M88.13,169.745
		c-1.971-1.812-3.841-3.752-5.944-5.393c-1.378-1.077-2.656-4.38-4.462-2.344c-1.41,1.589,1.793,2.9,3.069,4.164
		C82.72,168.081,84.843,169.838,88.13,169.745z M11.588,163.797c0.322,0.289,0.643,0.576,0.964,0.863
		c2.835-2.691,5.686-5.365,8.472-8.104c0.223-0.218,0.159-1.011-0.066-1.306c-0.21-0.271-1.029-0.469-1.227-0.297
		C16.707,157.625,13.459,160.114,11.588,163.797z M81.831,59.686c-4.745,2.084-6.767,5.025-6.34,8.273
		c0.052,0.402,0.473,0.951,0.834,1.059c0.304,0.091,0.964-0.258,1.135-0.586C78.799,65.87,80.058,63.265,81.831,59.686z
		 M32.881,154.264c-6.415,4.945-6.415,4.945-7.639,8.164C29.746,161.254,31.875,158.36,32.881,154.264z M38.747,172.588
		c3.896-1.729,5.396-4.391,6.707-7.189c0.149-0.326-0.101-1.216-0.284-1.255c-0.563-0.117-1.438-0.179-1.747,0.151
		C41.446,166.418,39.521,168.612,38.747,172.588z M103.074,197.75c-1.138,2.203-3.432,3.77-3.366,6.709
		C105.216,203.499,106.42,203.42,103.074,197.75z M113.981,195.375c-0.778,0.396-1.523,0.701-2.184,1.135
		c-0.998,0.658-1.834,1.474-1.074,2.806c0.578,1.011,1.441,1.293,2.443,0.619c1.268-0.854,3.276-0.754,3.631-2.761
		c0.037-0.209-0.326-0.582-0.588-0.729C115.521,196.06,114.786,195.754,113.981,195.375z M25.761,157.333
		c-3.623,0.356-6.337,2.746-9.015,7.476C20.673,163.497,22.662,160.519,25.761,157.333z M17.148,151.831
		c-3.184,3.625-6.974,6.709-10.348,11.644C12.357,160.043,16.634,155.229,17.148,151.831z M88.354,201.657
		c-2.592,0.758-4.458,1.188-6.221,1.883c-0.608,0.238-0.956,1.143-1.422,1.739c0.762,0.476,1.505,1.322,2.289,1.362
		C86.007,206.793,86.839,204.44,88.354,201.657z M51.906,75.356c1.135-1.333,2.572-2.271,2.524-3.125
		c-0.113-2.045,0.271-4.377-1.412-6.148C52.492,68.951,50.691,71.554,51.906,75.356z M120.251,192.138
		c-0.292,0.034-0.842-0.039-1.234,0.176c-0.541,0.295-1.236,0.747-1.347,1.247c-0.087,0.395,0.544,1.031,0.975,1.432
		c0.349,0.321,0.854,0.518,1.319,0.653c1.872,0.552,4.193-0.315,4.084-1.619c-0.16-1.896-1.99-1.278-3.122-1.704
		C120.772,192.263,120.607,192.233,120.251,192.138z M40.448,163.758c-2.487,1.982-4.582,4.306-5.423,7.505
		C38.25,169.853,39.206,166.711,40.448,163.758z M102.081,173.858c1.583,0.213,2.934,0.531,4.271,0.486
		c0.358-0.012,0.684-1.133,1.021-1.745c-2.104-0.032-2.032-2.453-3.581-3.791C103.112,170.812,102.61,172.295,102.081,173.858z
		 M31.304,169.967c0.273,0.205,0.547,0.41,0.821,0.617c2.06-2.502,4.179-4.969,4.336-8.643
		C34.742,164.62,33.022,167.293,31.304,169.967z M60.452,185.956c-0.612-0.938-1.146-1.756-1.682-2.572
		c-0.321,0.725-0.625,1.457-0.982,2.162c-0.146,0.285-0.396,0.539-0.645,0.752c-0.881,0.759-1.264,1.603-0.267,2.488
		c1.559,1.389,1.874-0.549,2.624-1.129C59.959,187.306,60.125,186.575,60.452,185.956z M79.904,192.062
		c0.321,0.14,0.645,0.276,0.965,0.416c1.027-1.267,2.951-2.03,2.345-4.233c-0.171-0.619-0.942-1.22-1.581-1.49
		c-0.25-0.105-1.201,0.646-1.3,1.121C80.043,189.239,80.027,190.661,79.904,192.062z M87.783,199.833
		c-1.271-1.062-1.87-1.883-2.659-2.164c-1.497-0.528-2.051,0.707-2.204,1.828c-0.076,0.562,0.677,1.783,0.851,1.746
		C84.929,200.997,86.03,200.493,87.783,199.833z M102.443,130.616c1.979-0.705,3.353-1.195,5.04-1.799
		C103.212,125.856,103.212,125.856,102.443,130.616z M67.016,187.061c1.95,1.012,3.215,0.484,4.223-0.688
		c0.324-0.377,0.49-1.459,0.279-1.615c-0.557-0.416-1.671-0.9-2.004-0.641C68.577,184.847,67.922,185.938,67.016,187.061z
		 M53.961,197.804c-1.44,1.418-2.38,2.254-3.189,3.2c-0.21,0.248-0.181,0.992,0.04,1.238c0.267,0.295,0.898,0.496,1.29,0.398
		C54.112,202.157,54.442,200.717,53.961,197.804z M92.769,187.663c-1.418,2.846,0.029,4.646,0.685,6.562
		c0.055,0.158,0.545,0.302,0.771,0.238c0.271-0.075,0.706-0.444,0.671-0.582C94.386,191.944,94.431,189.801,92.769,187.663z
		 M106.632,195.103c-0.168,4.69-0.16,4.717,2.828,6.963C108.392,199.436,107.555,197.374,106.632,195.103z M62.006,117.01
		c0.562,3.443,0.948,5.775,1.331,8.107C64.489,122.549,64.618,120.138,62.006,117.01z M96.125,132.729
		c0.762-1.021,1.427-1.635,1.666-2.382c0.088-0.274-0.832-0.871-1.292-1.321c-0.586,0.682-1.264,1.311-1.688,2.077
		C94.712,131.28,95.462,131.931,96.125,132.729z M33.398,108.101c-0.271,0.022-0.545,0.045-0.815,0.065c0,2.209,0,4.418,0,6.629
		c0.073,0.006,0.149,0.014,0.228,0.021C33.004,112.577,33.201,110.338,33.398,108.101z M89.267,199.979
		c0.248,0.074,0.496,0.148,0.744,0.223c0.516-0.902,1.107-1.771,1.503-2.727c0.12-0.29-0.302-0.805-0.476-1.215
		c-0.529,0.236-1.416,0.371-1.52,0.729C89.255,197.935,89.329,198.978,89.267,199.979z M27.202,166.301
		c-0.311,0.221-0.616,0.441-0.926,0.662c0,0.754-0.212,1.601,0.065,2.229c0.233,0.53,1.035,0.812,1.585,1.202
		c0.131-0.661,0.467-1.362,0.341-1.974C28.114,167.674,27.575,167.004,27.202,166.301z M105.642,177.997
		c0.299,0.25,0.602,0.498,0.898,0.748c0.881-0.977,1.762-1.953,2.643-2.931C107.308,175.819,105.91,176.28,105.642,177.997z
		 M57.022,92.119c0.812-0.933,1.482-1.366,1.474-1.782c-0.015-0.469-0.642-0.921-0.999-1.38c-0.327,0.329-0.858,0.619-0.934,0.997
		C56.472,90.429,56.755,90.976,57.022,92.119z M61.053,93.197c-0.666-0.38-1.158-0.66-1.649-0.94
		c-0.107,0.445-0.374,0.925-0.278,1.323c0.076,0.327,0.576,0.555,0.888,0.827C60.294,94.077,60.578,93.748,61.053,93.197z
		 M114.909,169.917c-0.638-0.311-1.272-0.707-1.33-0.637c-0.371,0.459-0.615,1.021-0.902,1.549c0.346,0.18,0.857,0.598,1.006,0.494
		C114.128,171.01,114.431,170.497,114.909,169.917z M87.647,130.606c-0.494-0.322-0.952-0.67-1.463-0.9
		c-0.063-0.029-0.405,0.547-0.617,0.842c0.483,0.287,0.957,0.597,1.469,0.828C87.088,131.401,87.341,130.997,87.647,130.606z
		 M57.295,201.034c-0.354,0.244-0.58,0.402-0.81,0.561c0.236,0.314,0.437,0.679,0.732,0.91c0.082,0.062,0.467-0.264,0.713-0.41
		C57.723,201.743,57.512,201.394,57.295,201.034z M92.005,180.943c-0.312,0.255-0.693,0.427-0.688,0.589
		c0.016,0.461,0.186,0.916,0.291,1.375c0.33-0.224,0.914-0.429,0.935-0.675C92.567,181.838,92.222,181.417,92.005,180.943z
		 M69.203,62.601c-0.559-0.33-0.871-0.608-1.229-0.686c-0.152-0.033-0.597,0.417-0.559,0.538c0.109,0.36,0.396,0.665,0.617,0.992
		C68.349,63.216,68.667,62.987,69.203,62.601z M75.98,124.514c-0.424,0.445-0.818,0.771-0.783,0.836
		c0.367,0.605,0.811,1.167,1.229,1.74c0.192-0.189,0.583-0.459,0.544-0.557C76.707,125.874,76.354,125.249,75.98,124.514z
		 M101.351,174.043c-0.493-0.461-0.758-0.813-1.108-0.984c-0.147-0.07-0.715,0.288-0.695,0.379c0.072,0.393,0.199,0.928,0.481,1.081
		C100.255,174.64,100.737,174.284,101.351,174.043z M125.419,169.972c-0.258,0.104-0.634,0.144-0.74,0.333
		c-0.103,0.181,0.074,0.521,0.128,0.789c0.257-0.145,0.577-0.239,0.743-0.454C125.642,170.521,125.474,170.202,125.419,169.972z
		 M32.156,117.995c-0.14-0.346-0.245-0.615-0.354-0.883c-0.136,0.256-0.35,0.5-0.386,0.77c-0.038,0.275,0.098,0.574,0.155,0.861
		C31.774,118.483,31.978,118.224,32.156,117.995z M110.56,171.538c-0.125-0.225-0.213-0.594-0.385-0.638
		c-0.208-0.054-0.486,0.165-0.734,0.267c0.166,0.318,0.334,0.635,0.501,0.953C110.147,171.926,110.353,171.733,110.56,171.538z
		 M75.56,170.209c-0.034-0.092-0.046-0.233-0.104-0.26c-0.122-0.053-0.271-0.037-0.409-0.053c0.041,0.145,0.081,0.285,0.121,0.43
		C75.296,170.288,75.428,170.249,75.56,170.209z M75.804,56.459c-0.104,0.029-0.264,0.027-0.3,0.094
		c-0.073,0.131-0.078,0.301-0.11,0.455c0.188-0.038,0.369-0.076,0.553-0.113C75.899,56.75,75.851,56.604,75.804,56.459z
		 M70.574,168.187c0.101,0.106,0.217,0.315,0.299,0.304c0.268-0.043,0.521-0.166,0.78-0.259c-0.103-0.104-0.221-0.313-0.306-0.301
		C71.084,167.972,70.831,168.094,70.574,168.187z M29.15,174.437c0.116-0.069,0.232-0.144,0.351-0.213
		c-0.098-0.095-0.239-0.284-0.277-0.265c-0.162,0.08-0.292,0.226-0.435,0.347C28.908,174.349,29.029,174.394,29.15,174.437z
		 M57.643,95.396l0.188-0.295l-0.319-0.031L57.643,95.396z"/>
	<path fill="#A92817" d="M133.642,159.897c-4.661-0.148-8.438-0.059-12.162-0.464c-2.396-0.261-4.713-1.257-7.07-1.897
		c-0.374-0.102-1.092-0.193-1.135-0.084c-0.502,1.248-1.319,1.631-2.09,0.459c-0.585-0.893-0.744-2.103-0.92-3.199
		c-0.041-0.254,0.594-0.84,0.969-0.891c0.796-0.107,2.004-0.299,2.386,0.129c4.021,4.535,9.725,2.193,14.487,3.616
		C129.78,158.065,131.649,157.883,133.642,159.897z"/>
	<path fill="#A92817" d="M107.265,166.735c-0.123-3.217,2.479-3.673,5.275-5.436c-0.967,3.725-3.248,4.457-5.459,5.27
		L107.265,166.735z"/>
	<path fill="#A92817" d="M125.351,164.528c1.07-0.572,2.144-1.146,3.21-1.721c0.177,0.318,0.354,0.639,0.532,0.957
		c-1.02,0.627-2.041,1.255-3.062,1.883C125.804,165.274,125.577,164.901,125.351,164.528z"/>
	<path fill="#A92817" d="M131.673,165.526c-0.379-0.34-0.588-0.527-0.797-0.716c0.455-0.367,0.894-0.761,1.385-1.069
		c0.07-0.045,0.4,0.324,0.609,0.502C132.457,164.687,132.044,165.129,131.673,165.526z"/>
	<path fill="#A92817" d="M123.378,162.93c-0.9,0.763-1.303,1.253-1.82,1.479c-0.25,0.106-0.717-0.289-1.085-0.457
		c0.329-0.341,0.604-0.8,1.004-0.986C121.835,162.797,122.333,162.93,123.378,162.93z"/>
	<path fill="#A92817" d="M76.152,93.967c0.17-1.387,0.342-2.773,0.643-5.229c1.841,2.818,1.313,4.859,0.882,6.809
		c-0.081,0.365-1.116,0.822-1.604,0.72c-0.771-0.162-1.404-0.903-2.18-1.14c-1.282-0.392-2.812,1.455-3.989-0.403
		c-1.262-1.995-0.854-4.112-0.143-6.329c0.149,0.585,0.305,1.169,0.446,1.756c0.177,0.737,0.343,1.476,1.303,2.598
		c0.193-0.429,0.379-0.86,0.58-1.285c0.312-0.662,0.502-1.948,1.476-0.592c0.73,1.016,1.173,2.24,1.743,3.372
		C75.589,94.152,75.871,94.06,76.152,93.967z"/>
	<path fill="#A92817" d="M143.866,42.332c-1.542-4.727-3.088-9.453-4.63-14.179C143.874,31.934,144.091,37.135,143.866,42.332z"/>
	<path fill="#A92817" d="M132.405,29.294c2.857,4.486,4.105,9.396,3.716,14.698C134.153,39.289,133.144,34.342,132.405,29.294z"/>
	<path fill="#A92817" d="M153.624,39.105c-4.396-2.278-4.95-7-7.081-11.084c0.521,0.215,1.312,0.283,1.525,0.67
		C149.979,32.13,151.787,35.626,153.624,39.105z"/>
	<path fill="#A92817" d="M125.08,31.984c2.345,4.054,3.154,9.258,2.581,15.077C125.952,41.969,125.583,37.557,125.08,31.984z"/>
	<path fill="#A92817" d="M97.551,99.25c-2.208-1.55-3.845-3.568-4.594-6.218C95.742,94.118,96.684,96.639,97.551,99.25z"/>
	<path fill="#A92817" d="M103.808,93.748c-1.938-1.459-4.377-2.525-4.732-6.14C101.813,89.354,103.138,91.294,103.808,93.748z"/>
	<path fill="#A92817" d="M117.634,54.622c-2.065-2.313-2.368-4.943-3.424-8.104C117.317,49.03,117.801,50.294,117.634,54.622z"/>
	<path fill="#A92817" d="M103.815,72.22c-2.498-1.829-2.498-1.829-3.119-5.426C103.06,68.22,103.073,70.419,103.815,72.22z"/>
	<path fill="#A92817" d="M111.21,54.029c0.688,1.855,1.376,3.709,2.062,5.564c-2.187-1.312-3.15-3.092-3.054-5.302
		C110.55,54.205,110.88,54.117,111.21,54.029z"/>
	<path fill="#A92817" d="M107.22,66.848c-0.746-1.882-1.491-3.763-2.236-5.645C107.358,62.47,108.106,64.395,107.22,66.848z"/>
	<path fill="#A92817" d="M81.262,106.747c0-2.125,0-4.25,0-6.375c1.325,1.39,1.551,3.188,1.617,4.935
		c0.015,0.404-1.159,0.854-1.786,1.283L81.262,106.747z"/>
	<path fill="#A92817" d="M75.318,98.044c0.289,2.022,0.579,4.045,0.868,6.067c-0.296,0.054-0.592,0.104-0.888,0.158
		c-0.42-1.974-0.839-3.948-1.259-5.922C74.465,98.246,74.892,98.146,75.318,98.044z"/>
	<path fill="#A92817" d="M96.474,74.752c1.806,1.074,2.404,2.542,2.783,4.485C97.131,77.638,97.131,77.638,96.474,74.752z"/>
	<path fill="#A92817" d="M67.109,94.671c1.868,0.829,2.199,2.077,0.475,3.842c-0.12-1.314-0.24-2.628-0.36-3.941L67.109,94.671z"/>
	<path fill="#A92817" d="M107.229,85.575c0.213,0.161,0.431,0.321,0.646,0.481c-0.264-0.115-0.521-0.23-0.781-0.345L107.229,85.575z
		"/>
	<path fill="#A92817" d="M60.049,47.997c0.039,1.581-0.801,2.396-2.312,2.526c-1.593,0.137-2.597-0.989-2.583-2.766
		c0.013-1.343,0.642-2.129,1.984-2.263C58.732,45.335,59.973,46.42,60.049,47.997z"/>
	<path fill="#A92817" d="M103.149,110.694c-0.68-1.716-1.356-3.432-2.039-5.146C103.972,107.943,104.106,108.282,103.149,110.694z"
		/>
	<path fill="#A92817" d="M19.682,42.318c0.587-3.074,1.169-6.083,4.237-8.584C23.628,37.609,21.713,40.036,19.682,42.318z"/>
	<path fill="#A92817" d="M30.241,39.681c-1.229,2.023-2.458,4.046-3.924,6.456c-0.267-1.44-0.129-2.617,0.315-3.923
		c0.623-1.829,1.008-3.738,1.495-5.613c0.292-0.126,0.583-0.254,0.875-0.377c0.433-0.183,0.867-0.362,1.3-0.543
		c0.08,0.535,0.24,1.073,0.221,1.604C30.497,38.084,30.342,38.882,30.241,39.681z"/>
	<path fill="#A92817" d="M33.722,48.205c-1.011-3.576,0.374-6.538,2.163-9.396C36.366,42.249,34.429,45.069,33.722,48.205z"/>
	<path fill="#A92817" d="M138.067,51.744c1.259-0.406,1.891,0.099,1.974,1.369c0.432,6.621,0.854,13.241,1.287,19.862
		c-0.316,0.064-0.637,0.128-0.951,0.192c-0.347-1.048-0.915-2.08-0.995-3.148c-0.459-6.132-0.802-12.273-1.186-18.412
		L138.067,51.744z"/>
	<path fill="#A92817" d="M130.155,53.643c0.619,1.448,1.636,2.856,1.783,4.351c0.451,4.464,0.573,8.962,0.784,13.449
		c0.011,0.228-0.348,0.473-0.974,1.27c-0.333-2.299-0.626-4.144-0.863-5.996c-0.461-3.617-0.95-7.232-1.289-10.861
		c-0.069-0.747,0.471-1.55,0.729-2.327L130.155,53.643z"/>
	<path fill="#A92817" d="M66.726,131.37c-1.05,0.78-1.751,1.377-2.54,1.816c-0.136,0.074-0.834-0.461-0.943-0.816
		c-0.382-1.203,0.303-1.951,1.412-2.05C65.176,130.274,65.752,130.851,66.726,131.37z"/>
	<path fill="#A92817" d="M115.167,72.633c0.227,0.097,0.451,0.194,0.678,0.291c-0.126,0.143-0.252,0.286-0.377,0.429
		C115.367,73.113,115.268,72.874,115.167,72.633L115.167,72.633z"/>
	<path fill="#A92817" d="M88.124,112.581c0.229,1.629,0.457,3.26,0.701,4.887c0.233,1.593,0.489,3.18,0.909,5.873
		c-2.618-3.528-2.739-6.748-3.325-9.771c-0.031-0.158,1.194-0.564,1.84-0.855L88.124,112.581z"/>
	<path fill="#A92817" d="M46.917,68.763c0.547-3.318,1.095-6.636,1.676-10.154C50.47,60.632,50.03,64.867,46.917,68.763z"/>
	<path fill="#A92817" d="M61.06,164.728c0.916-0.328,1.813-0.739,2.756-0.938c0.346-0.072,0.792,0.363,1.193,0.566
		c-0.79,0.697-1.474,1.727-2.393,2.02c-1.554,0.494-1.186-1.004-1.394-1.838L61.06,164.728z"/>
	<path fill="#A92817" d="M103.209,114.499c0.341,0.363,0.683,0.729,1.021,1.092c0.729,2.222,1.456,4.439,2.501,7.627
		c-2.334-2.229-3.433-4.174-4.321-6.15C102.134,116.454,102.913,115.366,103.209,114.499z"/>
</g>
</svg>
